<?xml version="1.0" encoding="UTF-8"?><svg version="1.1" viewBox="0 0 24 24" xmlns="http://www.w3.org/2000/svg" xmlns:xlink="http://www.w3.org/1999/xlink"><!--Generated by IJSVG (https://github.com/iconjar/IJSVG)--><g fill="none"><path d="M0,0h24v24h-24v-24Z"></path><path stroke="#323232" stroke-linecap="round" stroke-linejoin="round" stroke-width="1.5" d="M20,11.182c0,4.541 -3.413,8.787 -8,9.818c-4.587,-1.031 -8,-5.277 -8,-9.818v-3.939c0,-0.812 0.491,-1.544 1.243,-1.851l5,-2.046c1.126,-0.461 2.388,-0.461 3.514,0l5,2.046c0.752,0.308 1.243,1.039 1.243,1.851v3.939Z"></path><path stroke="#323232" stroke-linecap="round" stroke-linejoin="round" stroke-width="1.5" d="M12,9.642c0.268,-0.302 0.731,-0.642 1.437,-0.642c1.234,0 2.063,1.117 2.063,2.158c0,2.175 -2.808,3.842 -3.5,3.842c-0.692,0 -3.5,-1.667 -3.5,-3.842c0,-1.041 0.828,-2.158 2.063,-2.158c0.706,0 1.169,0.34 1.437,0.642Z"></path></g></svg>