<svg viewBox="0 0 24 24" xmlns="http://www.w3.org/2000/svg"><g stroke-linecap="round" stroke-width="1.5" stroke="#323232" fill="none" stroke-linejoin="round"><path d="M9 15v0c0 2.2-1.8 4-4 4 -2.21 0-4-1.8-4-4 0-2.21 1.79-4 4-4l-.01 0c.69-.01 1.37.18 1.98.53"/><path d="M19 11a4 4 0 1 0 0 8 4 4 0 1 0 0-8Z"/><path d="M19.25 8.5l-.01-.001c.69 0 1.25-.56 1.25-1.25v0 -.01c0-.7-.56-1.25-1.25-1.25 -.01 0-.01 0-.01 0h-3.25l3 9"/><path d="M5 15l6 0 5-7L9 8l-4 7Z"/><path d="M7 5.5l3 0"/><path d="M11 15L8 5.5"/></g><path fill="none" d="M0 0h24v24H0Z"/></svg>