<?xml version="1.0" encoding="UTF-8"?><svg version="1.1" viewBox="0 0 24 24" xmlns="http://www.w3.org/2000/svg" xmlns:xlink="http://www.w3.org/1999/xlink"><g fill="none"><rect width="24" height="24"></rect><path stroke="#323232" stroke-linecap="round" stroke-linejoin="round" stroke-width="1.5" d="M9.911 7.345h2.089l1.628-.992 -6.18208e-08 3.76598e-08c.47166-.287324 1.08694-.13789 1.37426.33377 .0391661.0642935.0709466.132804.0947375.20423l2.303 6.909 3.24 4.32 6.33845e-09 8.45127e-09c.596468.79529.43529 1.92353-.36 2.52 -.311573.23368-.690534.36-1.08.36h-3.93l-1.13221e-07 7.03118e-11c-1.11134.000690182-2.17271-.461691-2.929-1.276l-8.541-9.193 -1.31689e-07-1.42034e-07c-1.12649-1.21498-1.05476-3.11312.160222-4.23961 .0284235-.0263534.0573551-.0521535.0867785-.0773857l3.423-2.933 -1.01059e-09 8.65684e-10c.486125-.416423 1.21778-.359918 1.63421.126207 .179863.209969.278743.477319.278793.753793v3.184h2.617"></path><line x1="3" x2="5" y1="17.5" y2="17.5" stroke="#323232" stroke-linecap="round" stroke-linejoin="round" stroke-width="1.5"></line><line x1="8" x2="3" y1="21" y2="21" stroke="#323232" stroke-linecap="round" stroke-linejoin="round" stroke-width="1.5"></line><path stroke="#323232" stroke-linecap="round" stroke-linejoin="round" stroke-width="1.5" d="M20.547 18h-5.024l1.42777e-07-3.93229e-10c-.832458.00229273-1.62795-.343606-2.194-.954l-9.674-10.418"></path><line x1="13" x2="16.91" y1="13" y2="12.32" stroke="#323232" stroke-linecap="round" stroke-linejoin="round" stroke-width="1.5"></line><line x1="12" x2="16.06" y1="10.5" y2="9.8" stroke="#323232" stroke-linecap="round" stroke-linejoin="round" stroke-width="1.5"></line></g></svg>