<svg id="Layer_1" data-name="Layer 1" xmlns="http://www.w3.org/2000/svg" viewBox="0 0 24 24"><defs><style>.cls-1{fill:none;stroke:#323232;stroke-linecap:round;stroke-linejoin:round;stroke-width:1.5px;}</style></defs><path class="cls-1" d="M9.91,7.34H12l1.63-1h0A1,1,0,0,1,15,6.69a1.24,1.24,0,0,1,.1.2l2.3,6.91,3.24,4.32h0a1.79,1.79,0,0,1-.36,2.52A1.82,1.82,0,0,1,19.2,21H15.27a4,4,0,0,1-2.93-1.28L3.8,10.53h0A3,3,0,0,1,4,6.29l.09-.08L7.47,3.28h0a1.16,1.16,0,0,1,1.91.88V7.35H12"/><path class="cls-1" d="M20.55,18h-5a3,3,0,0,1-2.19-.95L3.66,6.63"/><line class="cls-1" x1="12" y1="10.5" x2="16.06" y2="9.8"/></svg>