<?xml version="1.0" encoding="UTF-8"?><svg version="1.1" viewBox="0 0 24 24" xmlns="http://www.w3.org/2000/svg" xmlns:xlink="http://www.w3.org/1999/xlink"><g stroke-linecap="round" stroke-width="1.5" stroke="#323232" fill="none" stroke-linejoin="round"><circle cx="7.5" cy="16.5" r="4.5"></circle><path d="M7.5 21h11.5l-8.74228e-08-3.55271e-15c1.10457 4.82823e-08 2-.89543 2-2v-10 0c0-1.10457-.895431-2-2-2h-7"></path><path d="M3 16.5v-9.5l5.15143e-14 6.79481e-07c-3.75267e-07-2.48528 2.01472-4.5 4.5-4.5 2.48528-3.75267e-07 4.5 2.01472 4.5 4.5 0 0 0 3.55271e-15 0 3.55271e-15v9.5"></path><path d="M7.5 16.45h-2.18557e-09c-.0276142 1.20706e-09-.05.0223858-.05.05 1.20706e-09.0276142.0223858.05.05.05 .0276142-1.20706e-09.05-.0223858.05-.05v-3.55271e-15c0-.0276142-.0223858-.05-.05-.05 0 0-8.88178e-16 0-8.88178e-16 0"></path></g><rect width="24" height="24" fill="none"></rect></svg>